<?xml version="1.0" encoding="utf-8"?>
<!-- Generator: Adobe Illustrator 20.1.0, SVG Export Plug-In . SVG Version: 6.00 Build 0)  -->
<svg version="1.1" id="Laag_1" xmlns="http://www.w3.org/2000/svg" xmlns:xlink="http://www.w3.org/1999/xlink" x="0px" y="0px"
	 viewBox="0 0 205 210" style="enable-background:new 0 0 205 210;" xml:space="preserve">
<style type="text/css">
	.st0{stroke:#000000;stroke-width:4;stroke-linecap:round;stroke-linejoin:round;stroke-miterlimit:10;}
	.st1{fill:#FFFFFF;stroke:#000000;stroke-width:4;stroke-linecap:round;stroke-linejoin:round;stroke-miterlimit:10;}
	.st2{fill:#FDFDFD;stroke:#000000;stroke-width:4;stroke-linecap:round;stroke-linejoin:round;stroke-miterlimit:10;}
	.st3{fill:none;stroke:#000000;stroke-width:4;stroke-linecap:round;stroke-linejoin:round;stroke-miterlimit:10;}
	.st4{fill:none;stroke:#000000;stroke-width:4;stroke-linecap:round;stroke-miterlimit:10;}
</style>
<circle class="st0" cx="73.3" cy="119.6" r="17.1"/>
<path class="st1" d="M73.3,61.8L62,51.2H29c0,0-22-0.5-19.7,24.4c9.3,52.2,19.3,35.6,19.3,35.6s6-10.1,15.3-35.6
	c7.8-21.5,18-24.4,18-24.4L73.3,61.8z"/>
<path class="st1" d="M73.3,61.8L61.9,51.2c0,0-14,7.9-18.5,27.2l2.5,11C45.9,89.3,49.5,67.8,73.3,61.8z"/>
<path class="st1" d="M129,71.8l11.3,10.7h33c0,0,22,0.5,19.7-24.4c-9.3-52.2-19.3-35.6-19.3-35.6s-6,10.1-15.3,35.6
	c-7.8,21.5-18,24.4-18,24.4L129,71.8z"/>
<path class="st1" d="M111.2,195.6c0,0,45.7,3.3,44.5-21c-1.2-26.9,7.2-38.2,7.2-38.2s11.9-19.9,13-29.5
	c9.5-55.2-64.8-49.7-64.8-49.7s-74.3-5.5-64.8,49.7c1.1,9.6,13,29.5,13,29.5s8.5,11.4,7.2,38.2C65.5,198.9,111.2,195.6,111.2,195.6z
	"/>
<path class="st2" d="M111.2,57.1c9.1,0.1,19.4,0.7,19.4,0.7s-19.9,69.4,1.2,81.2c0,0,23.3,12.3,23.9,30.8s-9.9,26.5-44.4,25.8
	c-34.5,0.8-45-7.2-44.4-25.8c0.6-18.5,23.9-30.8,23.9-30.8c21.1-11.9,1.2-81.2,1.2-81.2S102,57.2,111.2,57.1z"/>
<path class="st3" d="M61.1,103.1c0,0,5.5-9.5,20-7.5"/>
<circle class="st3" cx="76.6" cy="118.8" r="9"/>
<circle class="st3" cx="81.1" cy="119.6" r="1.9"/>
<path class="st3" d="M161.1,103.1c0,0-5.5-9.5-20-7.5"/>
<circle class="st2" cx="145.6" cy="118.8" r="9"/>
<circle class="st3" cx="150.1" cy="119.6" r="1.9"/>
<path class="st4" d="M111.2,176.1c0,0,9.8,11.8,22.8,0"/>
<path class="st4" d="M88.5,176.1c0,0,9.8,11.8,22.8,0"/>
<path class="st1" d="M110.8,149.2c0,0,23.8-1.7,9.2,12.9c-3.3,3-7.5,4.7-9.2,4.7h0.4c-1.7,0-5.9-1.7-9.2-4.7
	c-14.6-14.6,9.2-12.9,9.2-12.9"/>
<path class="st1" d="M111.2,173c7,13.9,16,13.3,16,13.3s-4.9-1.1-6.7-11.5c-1.9-13-9.3-7.9-9.3-7.9s-7.4-5.1-9.3,7.9
	c-1.8,10.5-6.7,11.5-6.7,11.5S104.1,186.9,111.2,173z"/>
<path class="st1" d="M177.4,29.6l-9,20.2c0,0,12.9,3.5,15.1,14.8S187,42.8,177.4,29.6z"/>
<circle cx="152.1" cy="134.5" r="1.2"/>
<ellipse transform="matrix(0.9585 -0.2852 0.2852 0.9585 -32.6077 47.4504)" cx="146.6" cy="135.7" rx="1" ry="1"/>
<ellipse transform="matrix(0.9585 -0.2852 0.2852 0.9585 -33.2279 48.5669)" cx="150.1" cy="138.4" rx="1" ry="1"/>
</svg>
